<svg width="40" height="40" viewBox="0 0 40 40" fill="none" xmlns="http://www.w3.org/2000/svg">
<path d="M16.6 35.6C18.1 32.5667 20.1 30.5417 22.6 29.525C25.1 28.5083 27.2333 28 29 28C29.7667 28 30.5167 28.0667 31.25 28.2C31.9833 28.3333 32.7 28.5 33.4 28.7C34.2 27.4333 34.8333 26.0667 35.3 24.6C35.7667 23.1333 36 21.6 36 20C36 15.5333 34.45 11.75 31.35 8.65C28.25 5.55 24.4667 4 20 4C15.5333 4 11.75 5.55 8.65 8.65C5.55 11.75 4 15.5333 4 20C4 21.5 4.19167 22.9333 4.575 24.3C4.95833 25.6667 5.53333 26.9333 6.3 28.1C7.66667 27.4333 9.08333 26.9167 10.55 26.55C12.0167 26.1833 13.5 26 15 26C16.0667 26 17.0917 26.0917 18.075 26.275C19.0583 26.4583 20.0333 26.7 21 27C20.2333 27.4 19.5083 27.8667 18.825 28.4C18.1417 28.9333 17.5 29.5 16.9 30.1C16.5 30.0333 16.1583 30 15.875 30H15C13.9333 30 12.875 30.1167 11.825 30.35C10.775 30.5833 9.76667 30.9333 8.8 31.4C9.86667 32.4667 11.0583 33.3583 12.375 34.075C13.6917 34.7917 15.1 35.3 16.6 35.6ZM20 40C17.2333 40 14.6333 39.475 12.2 38.425C9.76667 37.375 7.65 35.95 5.85 34.15C4.05 32.35 2.625 30.2333 1.575 27.8C0.525 25.3667 0 22.7667 0 20C0 17.2333 0.525 14.6333 1.575 12.2C2.625 9.76667 4.05 7.65 5.85 5.85C7.65 4.05 9.76667 2.625 12.2 1.575C14.6333 0.525 17.2333 0 20 0C22.7667 0 25.3667 0.525 27.8 1.575C30.2333 2.625 32.35 4.05 34.15 5.85C35.95 7.65 37.375 9.76667 38.425 12.2C39.475 14.6333 40 17.2333 40 20C40 22.7667 39.475 25.3667 38.425 27.8C37.375 30.2333 35.95 32.35 34.15 34.15C32.35 35.95 30.2333 37.375 27.8 38.425C25.3667 39.475 22.7667 40 20 40ZM15 23C13.0667 23 11.4167 22.3167 10.05 20.95C8.68333 19.5833 8 17.9333 8 16C8 14.0667 8.68333 12.4167 10.05 11.05C11.4167 9.68333 13.0667 9 15 9C16.9333 9 18.5833 9.68333 19.95 11.05C21.3167 12.4167 22 14.0667 22 16C22 17.9333 21.3167 19.5833 19.95 20.95C18.5833 22.3167 16.9333 23 15 23ZM15 19C15.8333 19 16.5417 18.7083 17.125 18.125C17.7083 17.5417 18 16.8333 18 16C18 15.1667 17.7083 14.4583 17.125 13.875C16.5417 13.2917 15.8333 13 15 13C14.1667 13 13.4583 13.2917 12.875 13.875C12.2917 14.4583 12 15.1667 12 16C12 16.8333 12.2917 17.5417 12.875 18.125C13.4583 18.7083 14.1667 19 15 19ZM29 25C27.6 25 26.4167 24.5167 25.45 23.55C24.4833 22.5833 24 21.4 24 20C24 18.6 24.4833 17.4167 25.45 16.45C26.4167 15.4833 27.6 15 29 15C30.4 15 31.5833 15.4833 32.55 16.45C33.5167 17.4167 34 18.6 34 20C34 21.4 33.5167 22.5833 32.55 23.55C31.5833 24.5167 30.4 25 29 25Z" fill="#FF3F4E"/>
</svg>
